<svg width="92" height="40" viewBox="0 0 92 40" fill="none" xmlns="http://www.w3.org/2000/svg">
<path d="M8.60409 12.1729L14.7849 8.58426L8.59944 4.99292L2.85329 8.58146L8.60409 12.1729Z" fill="#B99653"/>
<path d="M6.91208 13.1553L3.62067e-07 8.83863L0 17.1685L6.91208 13.1553Z" fill="#B99653"/>
<path d="M3.84423e-07 8.3243L6.90744 4.01052L7.46247e-07 0L3.84423e-07 8.3243Z" fill="#B99653"/>
<path d="M2.46429 22.6807H0V40.0003H2.46429V22.6807Z" fill="#B99653"/>
<path d="M15.6071 22.6807H12.3214L3.69643 31.3405L12.3214 40.0003H15.6071L6.98214 31.3405L15.6071 22.6807Z" fill="#B99653"/>
<path d="M32.8571 22.6807H18.0713V40.0003H32.8571V37.526H20.5356V32.5776H31.6249V30.1033H20.5356V25.1549H32.8571V22.6807Z" fill="#B99653"/>
<path fill-rule="evenodd" clip-rule="evenodd" d="M43.9467 40.0003H35.3217V22.6807H43.9467C48.7102 22.6807 52.5717 26.5578 52.5717 31.3405C52.5717 36.1231 48.7102 40.0003 43.9467 40.0003ZM43.536 25.1684V25.1549H37.786V37.526H43.536V37.5125C43.6717 37.5214 43.8087 37.526 43.9467 37.526C47.3492 37.526 50.1074 34.7567 50.1074 31.3405C50.1074 27.9243 47.3492 25.1549 43.9467 25.1549C43.8087 25.1549 43.6717 25.1595 43.536 25.1684Z" fill="#B99653"/>
<path fill-rule="evenodd" clip-rule="evenodd" d="M63.661 40.0003C68.4244 40.0003 72.286 36.1231 72.286 31.3405C72.286 26.5578 68.4244 22.6807 63.661 22.6807C58.8975 22.6807 55.036 26.5578 55.036 31.3405C55.036 36.1231 58.8975 40.0003 63.661 40.0003ZM63.661 37.526C67.0634 37.526 69.8217 34.7567 69.8217 31.3405C69.8217 27.9243 67.0634 25.1549 63.661 25.1549C60.2585 25.1549 57.5003 27.9243 57.5003 31.3405C57.5003 34.7567 60.2585 37.526 63.661 37.526Z" fill="#B99653"/>
<path fill-rule="evenodd" clip-rule="evenodd" d="M83.3743 40.0003C88.1377 40.0003 91.9993 36.1231 91.9993 31.3405C91.9993 26.5578 88.1377 22.6807 83.3743 22.6807C78.6108 22.6807 74.7493 26.5578 74.7493 31.3405C74.7493 36.1231 78.6108 40.0003 83.3743 40.0003ZM83.3743 37.526C86.7767 37.526 89.535 34.7567 89.535 31.3405C89.535 27.9243 86.7767 25.1549 83.3743 25.1549C79.9718 25.1549 77.2136 27.9243 77.2136 31.3405C77.2136 34.7567 79.9718 37.526 83.3743 37.526Z" fill="#B99653"/>
</svg>
