<svg width="168" height="140" viewBox="0 0 168 140" fill="none" xmlns="http://www.w3.org/2000/svg">
<path fill-rule="evenodd" clip-rule="evenodd" d="M83.0385 132.698C78.1671 138.891 66.8724 141.745 61.4366 137.666C57.8714 134.99 56.0405 130.368 55.5507 126.338C54.7994 120.156 54.9098 116.872 55.5507 113.189C56.2797 108.999 58.1135 103.876 62.1685 103.114C63.8247 102.802 68.2054 103.023 73.6955 105.527C78.1452 107.557 81.5728 110.677 83.6393 114.441C85.3376 117.52 88.6556 125.56 83.0385 132.697V132.698ZM72.9893 128.717C73.8492 130.699 74.5093 133.227 72.5679 134.728C70.4126 136.395 65.4966 135.704 63.6463 133.931C61.2771 131.662 60.665 128.936 60.665 125.905C60.665 121.727 64.17 121.757 66.6905 122.854C69.6975 124.164 71.9971 126.43 72.9893 128.717Z" fill="#FF5C70"/>
<path d="M109.374 112.658C110.304 111.076 110.028 108.727 108.326 106.689C106.753 104.805 104.502 103.647 102.319 103.031C99.7708 102.312 97.2404 102.456 95.0518 103.075C91.7774 104 89.2097 107.16 88.8061 110.664C88.1923 115.993 90.7173 119.333 95.5582 122.629C98.2048 124.431 100.823 125.749 102.203 127.432C103.583 129.116 101.322 129.439 100.423 129.127C97.7196 128.192 93.391 126.349 91.3409 129.457C89.6945 131.953 91.106 135.307 94.086 137.25C98.0788 139.854 103.204 140.709 107.631 139.381C111.465 138.228 115.376 134.897 115.717 129.778C116.035 124.879 111.93 120.58 108.107 118.743C106.715 117.944 102.67 116.706 101.2 115.93C99.6467 115.111 98.8917 114.342 99.0564 113.34C99.221 112.339 100.733 112.02 102.609 113.053C104.727 114.219 108.075 114.867 109.374 112.658Z" fill="#FFC400"/>
<path fill-rule="evenodd" clip-rule="evenodd" d="M13.5811 101.723C11.5195 101.513 9.18047 102.134 7.09055 104.913C3.07995 110.245 0.0687175 120.641 0 129.661C0.224894 134.673 0.774057 136.681 2.57945 138.017C4.83908 139.451 7.44106 139.056 9.43935 137.28C11.0162 135.766 11.2318 133.211 11.4069 131.135C11.5648 129.263 11.6899 127.78 12.7503 127.8C13.5397 127.815 13.8757 129.116 14.3147 130.815C14.913 133.132 15.7025 136.188 18.0914 137.738C20.9338 139.579 25.1724 139.69 27.3683 137.098C29.3926 134.709 28.5955 130.268 27.3246 128.138C26.0536 126.009 25.0002 125.242 23.5406 123.901C21.9472 122.437 20.5091 121.115 20.5091 120.125C20.5091 119.364 21.0766 118.946 22.4509 118.476C24.502 117.773 27.857 116.849 29.8359 113.641C31.2977 111.483 31.3539 109.164 29.8359 107.108C28.8548 105.9 27.178 105.262 25.4897 105.526C22.3289 106.019 21.2188 108.381 19.5667 110.717C18.1092 112.777 16.9265 114.45 15.8989 113.577C15.0775 112.879 15.6674 111.664 16.3846 110.186C17.2589 108.385 18.3224 106.195 17.2482 104.077C16.6484 102.899 15.6426 101.934 13.5811 101.723Z" fill="#FFC400"/>
<path d="M48.1866 104.818C46.9145 104.064 42.7054 102.817 38.705 104.817C36.9618 105.689 35.1036 107.36 35.5138 110.246C35.9405 113.249 37.8881 113.986 38.8935 116.143C40.5935 119.79 40.0124 123.453 38.2617 125.082C36.5109 126.711 36.3179 126.915 35.5138 127.872C34.6846 128.858 34.4147 129.538 34.1399 130.649C33.8449 132.664 33.7935 135.72 38.2617 137.869C41.0871 139.228 44.9687 139.289 47.9746 137.869C52.2737 135.838 52.6704 131.268 50.0099 127.872C49.1568 126.783 48.5162 126.294 47.6044 125.082C45.8535 122.755 46.2432 119.722 46.9145 118.332C47.5859 116.943 50.223 114.659 51.2018 112.046C52.0617 109.75 51.2878 106.656 48.1866 104.818Z" fill="#3BC1FA"/>
<path d="M13.6294 53.7265C11.5606 53.5198 9.46674 53.7764 7.64865 55.8863C3.62377 61.1189 0.0689621 72.2928 0 81.1445C0.225694 86.0631 0.376151 87.8932 2.18797 89.2045C3.30466 89.8976 4.61548 90.2152 5.92704 90.1103C7.23861 90.0054 8.48161 89.4837 9.47295 88.6219C12.4822 85.7971 10.5513 79.2769 12.7957 79.3181C14.6675 79.3525 13.9993 86.4346 18.1558 89.0715C21.0083 90.8786 25.6414 90.5489 27.4658 88.4434C29.2901 86.3378 28.9635 82.5975 27.4218 79.6503C25.8801 76.7032 20.5821 73.6477 20.5821 71.7862C20.5821 69.9247 26.6256 70.6797 29.9421 65.423C31.4091 63.305 31.4655 61.029 29.9421 59.0115C29.4491 58.4177 28.8196 57.951 28.1069 57.6512C27.3942 57.3514 26.6194 57.2273 25.8482 57.2894C21.0648 57.644 18.1558 67.1876 15.9554 65.3593C14.1263 63.8395 19.2718 59.8195 17.3096 56.0368C16.7077 54.8804 15.6983 53.9331 13.6294 53.7265Z" fill="#FF5C70"/>
<path d="M38.2656 88.0346C42.1259 92.5772 49.1595 92.4931 52.7961 92.5772C56.4327 92.6613 60.0039 92.1244 61.7663 89.1159C63.5287 86.1075 61.1364 81.0675 55.2962 81.4875C49.456 81.9076 46.8888 81.9373 46.5843 80.2743C46.2799 78.6114 49.3573 78.616 54.3485 78.0571C58.4377 77.5992 59.1139 74.0399 58.7851 71.9597C58.4564 69.8795 56.5668 68.4952 54.9031 68.0795C51.7835 67.3 46.0002 69.4102 45.4752 67.4909C44.9501 65.5717 49.3572 65.3079 55.2962 65.3079C58.5059 65.3079 60.3184 63.046 59.7638 60.2744C59.1428 57.1707 56.9544 56.4599 51.4087 56.3725C46.365 56.293 42.5555 57.3323 38.8202 60.3191C33.2744 64.7536 32.1652 80.8559 38.2656 88.0346Z" fill="#FFC400"/>
<path fill-rule="evenodd" clip-rule="evenodd" d="M93.5839 86.4018C88.5711 92.7673 76.9486 95.7007 71.355 91.508C67.6864 88.7581 65.8023 84.0073 65.2983 79.8649C64.5252 73.511 64.6388 70.1356 65.2983 66.3496C66.0485 62.0434 67.9355 56.7777 72.1082 55.9937C73.8124 55.6735 78.3203 55.9 83.9697 58.4744C88.5485 60.5608 92.0756 63.7678 94.2021 67.6367C95.9497 70.8011 99.364 79.0654 93.5839 86.4006V86.4018ZM83.243 82.3105C84.1278 84.3478 84.8071 86.9463 82.8094 88.489C80.5915 90.2017 75.5328 89.492 73.6289 87.6699C71.1909 85.3367 70.561 82.5357 70.561 79.4203C70.561 75.1258 74.1677 75.1563 76.7614 76.2842C79.8557 77.6299 82.222 79.9596 83.243 82.3105Z" fill="#3BC1FA"/>
<path fill-rule="evenodd" clip-rule="evenodd" d="M116.874 93.6195C126.617 93.6195 132.3 83.5977 132.3 73.7377C132.3 63.8778 125.03 55.8848 116.062 55.8848C107.094 55.8848 99.8242 63.8778 99.8242 73.7377C99.8242 83.5977 106.319 93.6195 116.874 93.6195ZM110.244 73.9665C113.211 74.8036 115.832 72.1431 116.706 69.0452C117.581 65.9473 116.076 62.8112 113.345 62.0407C110.613 61.2701 107.69 63.1568 106.815 66.2547C105.94 69.3527 107.029 73.0596 110.244 73.9665Z" fill="#FFC400"/>
<path fill-rule="evenodd" clip-rule="evenodd" d="M152.377 93.6195C162.12 93.6195 167.803 83.5977 167.803 73.7377C167.803 63.8778 160.533 55.8848 151.565 55.8848C142.597 55.8848 135.327 63.8778 135.327 73.7377C135.327 83.5977 141.822 93.6195 152.377 93.6195ZM147.793 74.007C150.874 74.1401 152.812 70.949 152.951 67.733C153.09 64.5171 150.904 61.8107 148.069 61.6881C145.233 61.5656 142.822 64.0733 142.683 67.2893C142.544 70.5052 144.456 73.8627 147.793 74.007Z" fill="#FF5C70"/>
<path fill-rule="evenodd" clip-rule="evenodd" d="M25.2652 31.1027C22.1866 27.9454 18.7425 25.1536 15.0037 22.7847C13.0763 21.5247 11.0858 20.3609 9.03955 19.2977C11.4136 18.1148 13.7144 16.7946 15.9298 15.3442C19.2169 13.2375 22.2903 10.8246 25.1076 8.13867C31.044 12.3118 33.8502 16.2316 33.7576 19.294C33.6742 22.3118 31.1645 26.7237 25.2652 31.1027Z" fill="#FF5C70"/>
<path fill-rule="evenodd" clip-rule="evenodd" d="M0.526134 15.9849L0.461426 15.9722C0.578279 13.143 1.05611 10.3394 1.88366 7.6271C2.45623 5.78121 3.13046 2.12213 5.42075 0.64269C7.62792 -0.77325 10.8507 0.433157 13.2888 1.54976C14.8218 2.25637 16.2534 2.96477 17.6202 3.67228C14.0278 7.99267 7.85875 12.5671 0.526134 15.9876V15.9849Z" fill="#3BC1FA"/>
<path fill-rule="evenodd" clip-rule="evenodd" d="M18.4929 35.2886C16.689 36.2112 14.7372 37.1118 12.5633 37.9724C8.70571 39.966 6.63361 38.884 5.47727 37.9724C3.36809 36.3078 2.35964 33.1778 1.89711 31.3546C1.43457 29.5314 0.972028 26.7966 0.897949 23.4004C7.67829 25.8545 13.7272 29.9424 18.4929 35.2913V35.2886Z" fill="#FFC400"/>
</svg>
