<svg id="svg" version="1.1" xmlns="http://www.w3.org/2000/svg" xmlns:xlink="http://www.w3.org/1999/xlink" width="400" height="178.44112769485906" viewBox="0, 0, 400,178.44112769485906"><g id="svgg"><path id="path0" d="M370.727 5.549 C 370.727 5.638,370.563 5.712,370.363 5.712 C 369.799 5.712,367.259 6.264,367.158 6.409 C 367.109 6.479,366.606 6.680,366.042 6.855 C 365.477 7.030,365.016 7.246,365.016 7.335 C 365.016 7.424,364.926 7.497,364.816 7.497 C 364.535 7.497,361.981 9.133,361.981 9.313 C 361.981 9.394,361.867 9.460,361.727 9.460 C 361.588 9.460,361.232 9.701,360.938 9.996 C 360.643 10.290,360.316 10.531,360.210 10.531 C 360.104 10.531,360.018 10.607,360.018 10.700 C 360.018 10.792,359.596 11.321,359.081 11.875 C 358.565 12.428,358.023 13.098,357.875 13.362 C 357.727 13.627,357.426 14.037,357.205 14.274 C 356.985 14.510,356.805 14.849,356.805 15.027 C 356.805 15.206,356.676 15.350,356.516 15.350 C 356.316 15.350,356.256 15.459,356.321 15.707 C 356.373 15.904,356.358 16.064,356.289 16.064 C 356.219 16.064,356.061 16.345,355.937 16.689 C 355.813 17.033,355.649 17.314,355.573 17.314 C 355.497 17.314,355.289 17.956,355.109 18.742 C 354.930 19.527,354.707 20.170,354.615 20.170 C 354.522 20.170,354.495 20.364,354.554 20.601 C 354.620 20.864,354.579 21.060,354.449 21.104 C 354.293 21.156,354.236 22.044,354.239 24.376 C 354.245 28.531,354.257 28.737,354.498 28.737 C 354.610 28.737,354.654 28.861,354.596 29.012 C 354.538 29.163,354.562 29.424,354.650 29.592 C 354.738 29.760,354.913 30.369,355.038 30.944 C 355.163 31.520,355.351 32.083,355.455 32.194 C 355.559 32.305,355.798 32.858,355.986 33.423 C 356.174 33.987,356.399 34.449,356.486 34.449 C 356.573 34.449,356.766 34.738,356.913 35.092 C 357.061 35.445,357.337 35.901,357.527 36.105 C 357.717 36.309,357.916 36.615,357.970 36.785 C 358.024 36.955,358.266 37.224,358.508 37.382 C 358.749 37.540,358.947 37.757,358.947 37.863 C 358.947 38.100,360.934 39.988,361.085 39.895 C 361.144 39.859,361.340 40.049,361.521 40.319 C 361.702 40.588,362.101 40.917,362.407 41.049 C 362.713 41.182,363.155 41.478,363.389 41.707 C 363.623 41.936,363.959 42.124,364.135 42.124 C 364.311 42.124,364.578 42.248,364.730 42.399 C 364.881 42.551,365.590 42.848,366.304 43.059 C 367.019 43.271,367.644 43.501,367.693 43.571 C 367.812 43.738,370.382 44.266,371.077 44.266 C 371.375 44.266,371.620 44.346,371.620 44.444 C 371.620 44.554,372.453 44.623,373.762 44.623 C 375.071 44.623,375.904 44.554,375.904 44.444 C 375.904 44.346,376.124 44.266,376.394 44.266 C 377.180 44.266,379.830 43.697,379.830 43.528 C 379.830 43.443,379.972 43.373,380.145 43.373 C 380.627 43.373,382.248 42.742,382.831 42.327 C 383.117 42.123,383.401 42.005,383.461 42.066 C 383.521 42.126,383.621 42.044,383.683 41.883 C 383.744 41.722,383.867 41.635,383.954 41.689 C 384.042 41.744,384.114 41.716,384.114 41.628 C 384.114 41.480,384.924 41.006,385.226 40.977 C 385.298 40.970,385.483 40.783,385.638 40.562 C 385.793 40.341,386.004 40.161,386.108 40.161 C 386.332 40.161,388.755 37.690,388.755 37.462 C 388.755 37.375,388.876 37.305,389.023 37.305 C 389.170 37.305,389.291 37.204,389.291 37.082 C 389.291 36.959,389.490 36.627,389.733 36.344 C 389.976 36.062,390.132 35.760,390.079 35.674 C 390.025 35.588,390.107 35.469,390.260 35.411 C 390.413 35.352,390.493 35.231,390.438 35.143 C 390.384 35.054,390.448 34.940,390.580 34.889 C 390.713 34.838,390.977 34.397,391.166 33.909 C 391.356 33.420,391.571 33.021,391.645 33.021 C 391.718 33.021,391.732 32.900,391.675 32.753 C 391.619 32.606,391.649 32.485,391.743 32.485 C 391.914 32.485,392.503 30.878,392.503 30.412 C 392.503 30.276,392.571 30.165,392.653 30.165 C 393.310 30.165,393.353 20.249,392.698 19.817 C 392.620 19.765,392.510 19.523,392.454 19.277 C 392.148 17.949,391.884 17.209,391.671 17.082 C 391.540 17.003,391.432 16.845,391.432 16.731 C 391.432 16.332,390.850 15.001,390.713 15.086 C 390.637 15.133,390.491 14.931,390.388 14.636 C 390.285 14.342,390.112 14.101,390.003 14.101 C 389.894 14.101,389.859 14.014,389.924 13.908 C 389.990 13.802,389.874 13.597,389.667 13.452 C 389.460 13.307,389.290 13.104,389.290 13.002 C 389.290 12.900,389.070 12.597,388.800 12.330 C 388.530 12.063,388.038 11.510,387.706 11.102 C 387.375 10.693,387.042 10.397,386.967 10.444 C 386.892 10.490,386.712 10.347,386.567 10.126 C 386.423 9.905,386.073 9.605,385.791 9.458 C 385.509 9.312,385.064 8.977,384.803 8.713 C 384.542 8.450,384.276 8.287,384.212 8.351 C 384.147 8.416,384.039 8.385,383.971 8.284 C 383.761 7.974,381.490 6.783,381.108 6.783 C 380.910 6.783,380.626 6.660,380.476 6.511 C 380.327 6.361,379.498 6.110,378.634 5.952 C 377.770 5.795,376.983 5.605,376.885 5.530 C 376.629 5.334,370.727 5.353,370.727 5.549 " stroke="none" fill="#d32c2c" fill-rule="evenodd"></path><path id="path1" d="M189.369 28.757 C 189.362 28.894,189.284 29.688,189.194 30.522 C 189.104 31.357,188.871 34.369,188.676 37.216 C 188.002 47.067,187.919 48.104,187.800 48.149 C 187.735 48.173,187.711 48.836,187.746 49.622 C 187.782 50.407,187.746 51.190,187.666 51.361 C 187.586 51.533,187.510 52.878,187.496 54.351 C 187.421 62.521,187.290 66.256,187.074 66.390 C 186.914 66.489,186.876 66.946,186.936 68.025 C 187.063 70.277,187.098 78.200,186.982 78.316 C 186.779 78.520,186.878 80.648,187.094 80.720 C 187.300 80.788,187.412 83.166,187.482 88.918 C 187.495 89.966,187.566 90.883,187.639 90.956 C 187.713 91.030,187.773 91.458,187.774 91.908 C 187.774 92.358,187.898 93.931,188.049 95.404 C 188.887 103.566,189.040 104.965,189.210 106.024 C 189.312 106.662,189.363 107.365,189.323 107.586 C 189.283 107.807,189.328 107.988,189.422 107.988 C 189.517 107.988,189.565 108.349,189.530 108.791 C 189.495 109.232,189.536 109.594,189.621 109.594 C 189.706 109.594,189.743 109.874,189.703 110.216 C 189.663 110.558,189.704 110.862,189.794 110.892 C 189.885 110.922,189.986 111.265,190.020 111.654 C 190.088 112.447,190.751 115.963,190.910 116.377 C 190.967 116.524,191.159 117.407,191.337 118.340 C 192.023 121.937,194.248 129.028,195.621 131.995 C 195.803 132.387,196.211 133.311,196.528 134.047 C 197.010 135.167,198.412 137.869,199.028 138.867 C 199.119 139.014,199.349 139.421,199.539 139.770 C 201.746 143.835,205.498 148.321,210.095 152.392 C 214.432 156.234,222.065 159.925,228.291 161.191 C 229.224 161.380,230.370 161.615,230.838 161.711 C 233.922 162.348,242.607 162.292,245.783 161.615 C 246.519 161.458,247.503 161.316,247.968 161.298 C 248.434 161.281,248.815 161.216,248.816 161.154 C 248.817 161.050,249.442 160.886,250.335 160.756 C 250.531 160.727,250.812 160.652,250.959 160.588 C 251.107 160.525,252.191 160.150,253.369 159.756 C 254.547 159.362,255.672 158.958,255.868 158.859 C 256.064 158.761,256.506 158.578,256.850 158.453 C 258.424 157.883,262.850 155.399,264.736 154.027 C 266.391 152.823,266.238 152.826,267.745 153.959 C 268.477 154.510,269.438 155.168,269.880 155.422 C 270.321 155.676,270.803 155.982,270.950 156.101 C 271.908 156.879,279.294 160.286,280.024 160.286 C 280.126 160.286,280.435 160.379,280.711 160.494 C 280.988 160.608,281.254 160.717,281.303 160.737 C 281.352 160.756,281.653 160.833,281.972 160.908 C 282.291 160.983,282.552 161.107,282.552 161.184 C 282.552 161.260,282.693 161.287,282.865 161.243 C 283.037 161.198,283.739 161.292,284.427 161.451 C 287.929 162.259,295.044 162.538,298.617 162.008 C 300.894 161.670,304.155 161.026,304.596 160.827 C 304.793 160.738,305.948 160.330,307.165 159.920 C 310.032 158.954,311.860 158.089,314.949 156.237 C 317.372 154.784,321.325 151.906,321.980 151.116 C 322.111 150.958,322.289 150.873,322.376 150.927 C 322.463 150.981,322.535 150.924,322.535 150.800 C 322.535 150.541,324.774 148.327,325.037 148.327 C 325.133 148.327,325.212 148.218,325.212 148.085 C 325.212 147.952,325.429 147.611,325.693 147.326 C 328.108 144.732,330.876 140.642,332.807 136.814 C 334.264 133.925,334.694 132.867,335.854 129.317 C 336.207 128.237,336.540 127.233,336.594 127.086 C 336.648 126.939,336.676 126.748,336.657 126.663 C 336.637 126.577,336.740 126.136,336.885 125.681 C 337.130 124.918,337.477 122.998,337.892 120.125 C 338.220 117.853,338.364 113.718,338.216 110.830 C 338.061 107.791,337.977 107.066,337.358 103.378 C 337.155 102.167,337.029 101.112,337.079 101.031 C 337.128 100.951,337.040 100.836,336.882 100.775 C 336.700 100.705,336.629 100.535,336.688 100.310 C 336.739 100.115,336.701 99.906,336.603 99.846 C 336.506 99.786,336.465 99.585,336.514 99.400 C 336.562 99.214,336.529 99.063,336.440 99.063 C 336.351 99.063,336.278 98.956,336.278 98.825 C 336.278 98.694,335.829 97.348,335.280 95.835 C 331.783 86.193,325.477 77.738,317.894 72.523 C 316.378 71.480,314.001 69.969,313.878 69.969 C 313.810 69.969,313.541 69.822,313.281 69.643 C 312.686 69.235,308.514 67.351,307.854 67.192 C 307.584 67.127,307.363 66.998,307.363 66.905 C 307.363 66.811,307.286 66.782,307.192 66.841 C 307.097 66.899,306.876 66.867,306.701 66.770 C 306.251 66.521,301.823 65.328,301.349 65.328 C 301.134 65.328,300.911 65.251,300.853 65.157 C 300.795 65.063,300.629 65.032,300.484 65.088 C 300.339 65.143,300.031 65.065,299.800 64.913 C 299.547 64.748,299.314 64.702,299.217 64.799 C 299.041 64.975,297.724 64.823,297.724 64.627 C 297.724 64.561,297.204 64.541,296.568 64.581 C 295.932 64.622,295.269 64.596,295.095 64.523 C 294.641 64.334,290.228 64.311,290.228 64.499 C 290.228 64.585,289.705 64.622,289.067 64.582 C 288.429 64.541,287.907 64.563,287.907 64.629 C 287.907 64.857,287.123 64.957,286.885 64.759 C 286.705 64.609,286.589 64.639,286.412 64.881 C 286.251 65.102,286.030 65.174,285.704 65.111 C 285.443 65.061,285.230 65.090,285.230 65.174 C 285.230 65.259,285.045 65.328,284.819 65.328 C 284.379 65.328,281.009 66.256,278.795 66.987 C 273.387 68.772,266.957 72.892,262.459 77.454 C 261.275 78.655,260.372 79.430,260.153 79.432 C 259.895 79.434,259.860 79.476,260.027 79.582 C 260.254 79.726,260.143 79.895,258.662 81.660 C 258.497 81.856,257.805 82.820,257.123 83.802 C 256.442 84.784,255.780 85.693,255.653 85.823 C 255.526 85.952,255.422 86.132,255.422 86.221 C 255.422 86.310,255.151 86.806,254.821 87.324 C 254.018 88.580,252.951 90.727,252.047 92.905 C 251.639 93.887,251.240 94.810,251.159 94.958 C 250.875 95.476,249.753 99.176,249.265 101.205 C 248.993 102.334,248.728 103.378,248.677 103.525 C 248.625 103.672,248.601 103.902,248.623 104.034 C 248.645 104.167,248.606 104.408,248.536 104.570 C 248.466 104.732,248.426 105.077,248.446 105.337 C 248.467 105.597,248.366 105.918,248.223 106.051 C 248.032 106.227,247.988 106.540,248.057 107.217 C 248.109 107.726,248.094 108.288,248.025 108.466 C 247.866 108.877,247.870 118.346,248.030 118.762 C 248.095 118.932,248.106 119.384,248.055 119.768 C 247.998 120.191,248.038 120.490,248.156 120.529 C 248.263 120.565,248.358 120.911,248.368 121.297 C 248.378 121.684,248.450 122.106,248.529 122.233 C 248.608 122.361,248.623 122.662,248.563 122.902 C 248.501 123.150,248.532 123.338,248.636 123.338 C 249.018 123.338,248.813 124.539,248.313 125.230 C 244.823 130.048,236.199 131.272,231.325 127.641 C 228.970 125.885,226.213 120.267,225.147 115.051 C 224.515 111.955,224.353 110.900,224.440 110.442 C 224.497 110.144,224.455 109.951,224.335 109.951 C 224.200 109.951,224.167 109.608,224.232 108.889 C 224.285 108.305,224.266 107.803,224.189 107.773 C 223.955 107.684,223.766 105.846,223.990 105.846 C 224.098 105.846,224.186 105.680,224.186 105.478 C 224.186 105.276,224.114 105.155,224.027 105.208 C 223.712 105.403,223.633 104.414,223.537 99.063 C 223.429 93.041,223.643 87.255,223.979 87.143 C 224.242 87.056,224.250 86.441,223.989 86.354 C 223.762 86.278,223.957 84.248,224.192 84.248 C 224.272 84.248,224.291 83.648,224.236 82.914 C 224.167 82.009,224.203 81.497,224.347 81.324 C 224.488 81.154,224.519 80.764,224.440 80.167 C 224.374 79.671,224.378 79.121,224.448 78.946 C 224.518 78.770,224.599 78.063,224.628 77.376 C 224.656 76.689,224.771 75.524,224.882 74.788 C 224.994 74.052,225.202 72.445,225.346 71.218 C 225.735 67.881,226.138 65.274,226.313 64.959 C 226.399 64.804,226.428 64.463,226.377 64.199 C 226.327 63.935,226.376 63.611,226.486 63.478 C 226.600 63.341,226.638 62.998,226.574 62.679 C 226.496 62.289,226.536 62.092,226.707 62.026 C 226.878 61.960,226.964 61.541,226.991 60.640 C 227.028 59.389,227.184 58.306,227.919 54.176 C 228.285 52.125,228.794 49.721,228.961 49.264 C 229.014 49.116,229.041 48.823,229.021 48.611 C 229.001 48.400,229.065 48.176,229.165 48.115 C 229.265 48.053,229.301 47.885,229.246 47.741 C 229.190 47.597,229.208 47.338,229.284 47.166 C 229.361 46.995,229.438 46.693,229.455 46.497 C 229.593 44.963,231.169 37.781,231.414 37.573 C 231.530 37.474,231.592 37.297,231.552 37.179 C 231.466 36.923,232.001 33.965,232.207 33.566 C 232.285 33.414,232.402 32.995,232.467 32.637 L 232.584 31.985 231.732 31.885 C 230.128 31.697,226.596 31.415,222.490 31.147 C 217.133 30.797,216.697 30.751,216.402 30.506 C 216.234 30.367,216.081 30.358,215.930 30.478 C 215.671 30.685,213.655 30.551,213.655 30.327 C 213.655 30.244,213.012 30.226,212.227 30.286 C 211.202 30.365,210.799 30.338,210.799 30.190 C 210.799 30.043,210.445 30.017,209.563 30.099 C 208.883 30.162,208.181 30.152,208.001 30.077 C 207.822 30.001,207.073 29.921,206.336 29.900 C 205.600 29.878,204.596 29.811,204.105 29.751 C 203.614 29.691,201.406 29.513,199.197 29.357 C 196.988 29.200,194.659 29.002,194.021 28.915 C 191.430 28.565,189.380 28.495,189.369 28.757 M114.235 63.653 C 113.891 63.695,112.745 63.896,111.688 64.100 C 110.630 64.304,109.646 64.425,109.501 64.370 C 109.356 64.314,109.237 64.355,109.237 64.462 C 109.237 64.572,109.045 64.619,108.791 64.570 C 108.545 64.523,108.344 64.548,108.344 64.625 C 108.344 64.818,107.141 65.199,106.935 65.072 C 106.844 65.015,106.742 65.035,106.709 65.117 C 106.676 65.198,105.765 65.575,104.685 65.954 C 103.606 66.333,102.561 66.741,102.365 66.860 C 102.169 66.979,101.807 67.136,101.562 67.210 C 100.431 67.549,96.711 69.792,93.780 71.902 C 91.458 73.574,87.282 77.433,87.283 77.906 C 87.283 78.007,88.168 79.215,89.249 80.589 C 90.330 81.963,91.493 83.449,91.834 83.891 C 92.174 84.333,93.308 85.779,94.353 87.104 C 95.398 88.429,96.559 89.915,96.933 90.406 C 99.078 93.224,99.973 94.372,100.272 94.690 C 100.456 94.886,101.244 95.879,102.022 96.895 C 104.620 100.291,107.590 104.015,107.808 104.149 C 107.943 104.232,108.316 103.947,108.808 103.384 C 113.466 98.059,121.133 97.045,127.175 100.954 C 128.677 101.926,135.132 108.960,135.920 110.484 L 136.206 111.036 134.730 112.591 C 128.785 118.855,124.116 122.988,120.125 125.523 C 117.759 127.026,113.823 128.722,113.363 128.438 C 113.274 128.383,113.158 128.450,113.106 128.587 C 112.926 129.053,107.971 129.942,105.548 129.942 C 103.698 129.942,99.150 129.181,98.081 128.692 C 97.885 128.602,97.363 128.438,96.921 128.327 C 96.011 128.098,95.600 127.926,93.051 126.703 C 87.869 124.218,82.006 119.249,76.845 112.969 C 76.465 112.507,75.699 111.517,74.509 109.951 C 73.283 108.337,69.497 102.584,68.694 101.116 C 68.186 100.186,67.403 98.786,66.734 97.610 C 65.958 96.249,63.834 92.036,62.921 90.049 C 62.560 89.264,62.122 88.339,61.947 87.994 C 61.254 86.626,58.489 79.488,58.473 79.028 C 58.464 78.758,58.394 78.537,58.318 78.537 C 58.242 78.537,58.103 78.335,58.010 78.090 C 57.845 77.656,57.822 77.650,57.166 77.893 C 55.573 78.484,52.770 79.304,52.288 79.321 C 51.999 79.331,51.763 79.406,51.763 79.487 C 51.763 79.567,51.622 79.605,51.450 79.569 C 51.278 79.534,51.058 79.597,50.959 79.709 C 50.782 79.911,48.118 80.824,46.586 81.206 C 46.145 81.317,45.622 81.480,45.426 81.570 C 44.791 81.859,43.711 82.087,43.449 81.987 C 43.309 81.933,43.195 81.974,43.195 82.076 C 43.195 82.303,38.344 83.908,37.531 83.950 C 37.213 83.967,36.913 84.086,36.863 84.215 C 36.813 84.344,36.694 84.401,36.599 84.343 C 36.504 84.284,36.283 84.316,36.107 84.414 C 35.931 84.512,35.065 84.827,34.181 85.113 C 30.335 86.358,28.908 86.764,28.739 86.659 C 28.640 86.598,28.559 86.632,28.559 86.736 C 28.559 86.840,28.403 86.925,28.212 86.925 C 28.022 86.925,27.816 87.006,27.755 87.104 C 27.695 87.202,27.489 87.282,27.299 87.282 C 27.108 87.282,26.952 87.358,26.952 87.450 C 26.952 87.628,28.418 91.949,28.833 92.994 C 29.579 94.873,30.562 97.230,30.715 97.508 C 30.812 97.684,30.844 97.905,30.785 97.999 C 30.727 98.093,30.759 98.170,30.856 98.170 C 30.953 98.170,31.127 98.632,31.243 99.197 C 31.360 99.761,31.536 100.377,31.636 100.566 C 31.820 100.914,32.503 104.584,32.867 107.179 C 32.977 107.961,33.022 109.185,32.968 109.899 C 32.914 110.617,32.944 111.242,33.035 111.298 C 33.210 111.406,33.268 113.749,33.101 113.917 C 33.046 113.972,32.977 114.889,32.946 115.955 C 32.792 121.373,30.449 127.041,27.010 130.315 C 25.260 131.981,22.649 133.810,22.315 133.603 C 22.215 133.541,22.133 133.568,22.133 133.662 C 22.133 134.019,19.413 135.295,17.459 135.855 C 16.478 136.136,16.565 136.107,16.179 136.276 C 15.996 136.356,15.615 136.429,15.331 136.439 C 15.048 136.449,14.815 136.510,14.815 136.576 C 14.815 136.754,11.793 137.429,9.650 137.729 C 6.043 138.235,6.163 138.204,6.101 138.643 C 6.069 138.870,6.138 139.045,6.260 139.045 C 6.417 139.045,6.447 139.330,6.368 140.086 C 6.295 140.781,6.329 141.197,6.469 141.338 C 6.585 141.453,6.705 142.049,6.736 142.661 C 6.814 144.199,6.926 145.358,7.129 146.720 C 7.340 148.137,7.584 150.361,7.942 154.128 C 8.091 155.698,8.305 157.747,8.419 158.679 C 8.533 159.612,8.646 160.857,8.672 161.446 C 8.698 162.035,8.776 162.662,8.845 162.841 C 8.915 163.019,8.925 163.561,8.867 164.045 C 8.799 164.619,8.830 164.926,8.954 164.926 C 9.078 164.926,9.119 165.306,9.069 165.997 C 9.026 166.586,9.046 167.068,9.113 167.068 C 9.367 167.068,9.490 168.903,9.247 169.057 C 9.099 169.151,9.088 169.206,9.217 169.207 C 9.329 169.209,9.471 169.482,9.534 169.815 C 9.653 170.452,10.425 170.774,11.064 170.453 C 11.213 170.378,11.977 170.223,12.762 170.108 C 14.829 169.805,16.990 169.413,18.864 169.001 C 19.766 168.802,20.589 168.692,20.694 168.757 C 20.798 168.821,20.884 168.799,20.884 168.708 C 20.884 168.617,21.217 168.488,21.625 168.423 C 22.033 168.358,22.856 168.153,23.454 167.968 C 24.053 167.783,25.386 167.378,26.417 167.067 C 27.448 166.756,28.553 166.384,28.873 166.240 C 29.193 166.096,29.535 166.028,29.632 166.088 C 29.729 166.148,29.808 166.102,29.808 165.987 C 29.808 165.865,29.958 165.816,30.165 165.871 C 30.361 165.922,30.523 165.911,30.524 165.847 C 30.526 165.713,31.135 165.420,33.646 164.344 C 35.168 163.692,36.544 162.979,39.351 161.388 C 46.199 157.506,52.309 151.805,56.599 145.292 C 57.513 143.905,57.841 143.365,58.510 142.146 C 58.864 141.503,59.007 141.582,61.312 143.699 C 67.562 149.440,74.254 154.023,80.321 156.717 C 81.450 157.218,82.724 157.787,83.152 157.982 C 84.083 158.406,88.296 159.828,90.049 160.310 C 91.939 160.829,91.964 160.835,92.682 160.945 C 93.050 161.001,93.351 161.114,93.351 161.197 C 93.351 161.280,93.592 161.299,93.887 161.241 C 94.181 161.182,94.423 161.204,94.424 161.290 C 94.424 161.376,94.874 161.464,95.422 161.486 C 95.970 161.509,96.711 161.608,97.070 161.707 C 98.393 162.073,103.244 162.296,107.363 162.182 C 111.498 162.067,112.604 161.970,115.606 161.459 C 116.508 161.306,117.371 161.229,117.525 161.288 C 117.679 161.346,117.805 161.324,117.805 161.238 C 117.805 161.151,118.266 160.974,118.831 160.843 C 120.283 160.506,125.108 159.067,125.747 158.780 C 126.042 158.648,126.484 158.481,126.729 158.409 C 126.975 158.337,127.697 158.040,128.336 157.748 C 128.974 157.457,129.938 157.022,130.477 156.782 C 131.017 156.542,131.580 156.272,131.727 156.183 C 131.874 156.093,132.548 155.732,133.225 155.381 C 137.648 153.081,144.922 147.945,148.763 144.409 C 152.086 141.349,157.504 135.894,160.117 132.976 C 162.805 129.975,166.112 126.547,166.957 125.884 C 167.761 125.254,170.436 124.314,171.004 124.463 C 171.607 124.620,172.228 124.206,172.152 123.697 C 171.779 121.179,171.658 120.231,171.432 118.072 C 171.288 116.698,171.086 115.051,170.983 114.413 C 170.881 113.775,170.836 112.992,170.885 112.673 C 170.937 112.327,170.896 112.093,170.783 112.093 C 170.662 112.093,170.624 111.766,170.678 111.200 C 170.729 110.678,170.692 110.308,170.589 110.308 C 170.487 110.308,170.450 109.940,170.499 109.421 C 170.546 108.934,170.517 108.512,170.435 108.484 C 170.353 108.456,170.123 107.149,169.925 105.578 C 169.726 104.007,169.440 101.798,169.289 100.669 C 168.796 96.980,168.392 92.637,168.542 92.637 C 168.623 92.637,168.537 92.474,168.352 92.275 C 168.152 92.061,167.898 91.959,167.728 92.024 C 167.571 92.084,167.338 92.066,167.211 91.984 C 167.083 91.901,166.738 91.824,166.444 91.811 C 163.536 91.684,159.698 88.946,156.754 84.897 C 149.339 74.699,140.646 68.195,130.382 65.163 C 129.306 64.845,128.304 64.539,128.157 64.482 C 128.010 64.425,127.834 64.390,127.766 64.404 C 127.698 64.417,126.775 64.263,125.713 64.060 C 123.846 63.704,116.096 63.429,114.235 63.653 M296.046 97.431 C 298.710 98.172,302.050 101.157,303.569 104.154 C 304.222 105.443,305.058 107.689,304.970 107.918 C 304.923 108.042,304.953 108.168,305.038 108.199 C 305.277 108.287,305.782 110.943,305.888 112.672 C 306.014 114.709,305.229 119.457,304.672 120.027 C 304.581 120.120,304.507 120.323,304.507 120.478 C 304.507 120.988,303.251 123.392,302.348 124.610 C 295.957 133.231,285.515 130.973,281.416 120.083 C 280.914 118.747,280.510 116.536,280.661 115.937 C 280.726 115.675,280.682 115.485,280.544 115.439 C 280.251 115.342,280.226 111.708,280.518 111.611 C 280.641 111.570,280.682 111.217,280.629 110.659 C 280.582 110.171,280.614 109.772,280.700 109.771 C 280.786 109.770,280.871 109.389,280.889 108.923 C 280.937 107.676,281.563 106.128,283.323 102.900 C 285.615 98.699,291.504 96.167,296.046 97.431 M174.748 146.682 C 168.566 148.171,164.376 152.895,163.473 159.393 C 162.567 165.922,167.234 172.963,173.762 174.914 C 174.154 175.031,174.596 175.174,174.743 175.232 C 174.891 175.289,175.086 175.318,175.178 175.296 C 175.592 175.199,176.243 175.481,175.984 175.645 C 175.781 175.773,175.810 175.809,176.116 175.812 C 176.331 175.813,176.557 175.734,176.618 175.636 C 176.678 175.538,177.326 175.457,178.056 175.457 C 178.822 175.457,179.384 175.533,179.384 175.636 C 179.384 175.734,179.605 175.813,179.875 175.812 C 180.242 175.810,180.301 175.768,180.107 175.645 C 179.908 175.519,179.970 175.456,180.375 175.370 C 182.051 175.014,182.612 174.848,183.695 174.387 C 187.493 172.771,191.113 168.844,191.976 165.403 C 192.042 165.139,192.161 164.884,192.239 164.835 C 192.317 164.787,192.339 164.588,192.288 164.393 C 192.232 164.178,192.298 163.999,192.456 163.938 C 192.653 163.862,192.696 163.622,192.632 162.954 C 192.582 162.434,192.620 162.071,192.723 162.071 C 192.822 162.071,192.903 161.520,192.908 160.821 C 192.912 160.118,192.839 159.572,192.740 159.572 C 192.644 159.572,192.588 159.258,192.616 158.875 C 192.643 158.489,192.561 158.053,192.431 157.896 C 192.301 157.740,192.241 157.494,192.297 157.348 C 192.353 157.203,192.316 157.033,192.216 156.971 C 192.115 156.909,192.076 156.746,192.129 156.608 C 192.181 156.471,192.147 156.359,192.052 156.359 C 191.956 156.359,191.879 156.273,191.879 156.169 C 191.879 156.065,191.624 155.442,191.314 154.786 C 188.355 148.534,181.328 145.096,174.748 146.682 " stroke="none" fill="#040404" fill-rule="evenodd"></path></g></svg>