<?xml version="1.0" encoding="utf-8"?>
<!-- Generator: Adobe Illustrator 26.2.1, SVG Export Plug-In . SVG Version: 6.00 Build 0)  -->
<svg version="1.0" xmlns="http://www.w3.org/2000/svg" xmlns:xlink="http://www.w3.org/1999/xlink" x="0px" y="0px"
	 viewBox="0 0 453.53 79.71" style="enable-background:new 0 0 453.53 79.71;" xml:space="preserve">
<style type="text/css">
	.st0{fill:#00857C;}
	.st1{fill:#FFFFFF;}
	.st2{fill:#E55200;}
	.st3{fill:#FBAA4B;}
	.st4{opacity:0.3;}
	.st5{fill:#0BA0E1;}
</style>
<g id="RTL">
	<g>
		<rect x="311.79" y="0" class="st0" width="141.74" height="79.71"/>
		<polygon class="st1" points="355.84,18.32 365.68,18.32 365.68,52.9 409.48,52.9 409.48,61.39 355.84,61.39 		"/>
	</g>
	<g id="middle_1_">
		<rect x="155.9" y="0" class="st2" width="141.74" height="79.71"/>
		<polygon class="st1" points="221.84,26.81 196.93,26.81 196.93,18.32 256.6,18.32 256.6,26.81 231.69,26.81 231.69,61.39 
			221.84,61.39 		"/>
	</g>
	<g>
		<rect x="0" y="0" class="st3" width="141.74" height="79.71"/>
		<path class="st1" d="M40.26,18.32h37.77c11.5,0,17.9,5.17,17.9,13.84c0,7.44-4.8,12.43-12.98,13.6l18.52,15.63H87.26L69.85,46.31
			H50.11v15.07h-9.84V18.32z M76.74,38.25c6.09,0,9.04-1.97,9.04-5.97s-2.95-5.91-9.04-5.91H50.11v11.87H76.74z"/>
	</g>
</g>
<g id="clearspace" class="st4">
	<g>
		<g>
			<path class="st5" d="M25.58,88.6c1.99,0,2.91,0.59,2.91,1.87c0,1.27-0.95,1.89-2.91,1.89H16.8V88.6H25.58 M25.58,88.5H16.7v3.96
				h8.88c2.03,0,3.01-0.66,3.01-1.99C28.59,89.14,27.61,88.5,25.58,88.5L25.58,88.5z"/>
		</g>
		<g>
			<path class="st5" d="M47.14,79.81v26.37H0.1V79.81H47.14 M13.32,100.27h0.1h3.28h0.1v-0.1v-4.92h6.44l5.77,5l0.03,0.02h0.04h4.74
				h0.27l-0.21-0.18l-6-5.07c2.67-0.46,4.19-2.12,4.19-4.6c0-3-2.21-4.71-6.07-4.71H13.42h-0.1v0.1v14.35V100.27 M47.24,79.71H0
				v26.57h47.24V79.71L47.24,79.71z M13.42,100.17V85.81h12.59c3.83,0,5.97,1.72,5.97,4.61c0,2.48-1.6,4.14-4.33,4.53l6.17,5.21
				h-4.74l-5.8-5.02H16.7v5.02H13.42L13.42,100.17z"/>
		</g>
	</g>
	<g>
		<g>
			<path class="st5" d="M25.58-17.67c1.99,0,2.91,0.59,2.91,1.87c0,1.27-0.95,1.89-2.91,1.89H16.8v-3.76H25.58 M25.58-17.77H16.7
				v3.96h8.88c2.03,0,3.01-0.66,3.01-1.99S27.61-17.77,25.58-17.77L25.58-17.77z"/>
		</g>
		<g>
			<path class="st5" d="M47.14-26.47V-0.1H0.1v-26.37H47.14 M13.32-6.01h0.1h3.28h0.1v-0.1v-4.92h6.44l5.77,5l0.03,0.02h0.04h4.74
				h0.27l-0.21-0.18l-6-5.07c2.67-0.46,4.19-2.12,4.19-4.6c0-3-2.21-4.71-6.07-4.71H13.42h-0.1v0.1v14.35V-6.01 M47.24-26.57H0V0
				h47.24V-26.57L47.24-26.57z M13.42-6.11v-14.35h12.59c3.83,0,5.97,1.72,5.97,4.61c0,2.48-1.6,4.14-4.33,4.53l6.17,5.21h-4.74
				l-5.8-5.02H16.7v5.02H13.42L13.42-6.11z"/>
		</g>
	</g>
	<g>
		<g>
			<path class="st5" d="M-15.81,51.21c1.27,0,1.89,0.95,1.89,2.91v8.78h-3.76v-8.78C-17.67,52.14-17.08,51.21-15.81,51.21
				 M-15.81,51.11c-1.33,0-1.97,0.98-1.97,3.01v8.88h3.96v-8.88C-13.82,52.1-14.47,51.11-15.81,51.11L-15.81,51.11z"/>
		</g>
		<g>
			<path class="st5" d="M-0.1,32.56v47.04h-26.37V32.56H-0.1 M-11.25,51.82c-0.46-2.67-2.12-4.19-4.6-4.19c-3,0-4.71,2.21-4.71,6.07
				v12.59v0.1h0.1h14.35h0.1v-0.1v-3.28v-0.1h-0.1h-4.92v-6.44l5-5.77l0.02-0.03v-0.04v-4.74v-0.27l-0.18,0.21L-11.25,51.82
				 M0,32.46h-26.57v47.24H0V32.46L0,32.46z M-11.31,52.06l5.21-6.17v4.74l-5.02,5.8v6.58h5.02v3.28h-14.35V53.7
				c0-3.83,1.72-5.97,4.61-5.97C-13.37,47.73-11.7,49.33-11.31,52.06L-11.31,52.06z"/>
		</g>
	</g>
	<g>
		<g>
			<path class="st5" d="M464.29,18.75c1.27,0,1.89,0.95,1.89,2.91v8.78h-3.76v-8.78C462.42,19.68,463.02,18.75,464.29,18.75
				 M464.29,18.65c-1.33,0-1.97,0.98-1.97,3.01v8.88h3.96v-8.88C466.28,19.64,465.63,18.65,464.29,18.65L464.29,18.65z"/>
		</g>
		<g>
			<path class="st5" d="M480,0.1v47.04h-26.37V0.1H480 M468.85,19.36c-0.46-2.67-2.12-4.19-4.6-4.19c-3,0-4.71,2.21-4.71,6.07v12.59
				v0.1h0.1h14.35h0.1v-0.1v-3.28v-0.1h-0.1h-4.92V24l5-5.77l0.02-0.03v-0.04v-4.74v-0.27l-0.18,0.21L468.85,19.36 M480.1,0h-26.57
				v47.24h26.57V0L480.1,0z M468.78,19.59l5.21-6.17v4.74l-5.02,5.8v6.58h5.02v3.28h-14.35V21.23c0-3.83,1.72-5.97,4.61-5.97
				C466.73,15.27,468.39,16.87,468.78,19.59L468.78,19.59z"/>
		</g>
	</g>
	<g>
		<g>
			<path class="st5" d="M431.87,88.6c1.99,0,2.91,0.59,2.91,1.87c0,1.27-0.95,1.89-2.91,1.89h-8.78V88.6H431.87 M431.87,88.5h-8.88
				v3.96h8.88c2.03,0,3.01-0.66,3.01-1.99C434.88,89.14,433.9,88.5,431.87,88.5L431.87,88.5z"/>
		</g>
		<g>
			<path class="st5" d="M453.43,79.81v26.37h-47.04V79.81H453.43 M419.61,100.27h0.1h3.28h0.1v-0.1v-4.92h6.45l5.77,5l0.03,0.02
				h0.04h4.74h0.27l-0.21-0.18l-6-5.07c2.67-0.46,4.19-2.12,4.19-4.6c0-3-2.21-4.71-6.07-4.71h-12.59h-0.1v0.1v14.35V100.27
				 M453.53,79.71h-47.24v26.57h47.24V79.71L453.53,79.71z M419.71,100.17V85.82h12.59c3.83,0,5.97,1.72,5.97,4.61
				c0,2.48-1.6,4.14-4.33,4.53l6.17,5.21h-4.74l-5.8-5.02h-6.58v5.02H419.71L419.71,100.17z"/>
		</g>
	</g>
	<g>
		<g>
			<path class="st5" d="M431.87-17.67c1.99,0,2.91,0.59,2.91,1.87c0,1.27-0.95,1.89-2.91,1.89h-8.78v-3.76H431.87 M431.87-17.77
				h-8.88v3.96h8.88c2.03,0,3.01-0.66,3.01-1.99S433.9-17.77,431.87-17.77L431.87-17.77z"/>
		</g>
		<g>
			<path class="st5" d="M453.43-26.47V-0.1h-47.04v-26.37H453.43 M419.61-6.01h0.1h3.28h0.1v-0.1v-4.92h6.45l5.77,5l0.03,0.02h0.04
				h4.74h0.27l-0.21-0.18l-6-5.07c2.67-0.46,4.19-2.12,4.19-4.6c0-3-2.21-4.71-6.07-4.71h-12.59h-0.1v0.1v14.35V-6.01 M453.53-26.57
				h-47.24V0h47.24V-26.57L453.53-26.57z M419.71-6.11v-14.35h12.59c3.83,0,5.97,1.72,5.97,4.61c0,2.48-1.6,4.14-4.33,4.53
				l6.17,5.21h-4.74l-5.8-5.02h-6.58v5.02H419.71L419.71-6.11z"/>
		</g>
	</g>
</g>
<g id="guidelines">
</g>
</svg>
