<?xml version="1.0" encoding="utf-8"?>
<!-- Generator: Adobe Illustrator 16.0.0, SVG Export Plug-In . SVG Version: 6.00 Build 0)  -->
<!DOCTYPE svg PUBLIC "-//W3C//DTD SVG 1.1//EN" "http://www.w3.org/Graphics/SVG/1.1/DTD/svg11.dtd">
<svg version="1.1" id="Livello_1" xmlns="http://www.w3.org/2000/svg" xmlns:xlink="http://www.w3.org/1999/xlink" x="0px" y="0px"
	 width="1000px" height="207.769px" viewBox="-202.36 317.061 1000 207.769" enable-background="new -202.36 317.061 1000 207.769"
	 xml:space="preserve">
<g>
	<path fill="#E72679" d="M-5.031,465.371c4.155-11.632,7.894-23.264,12.464-35.312c-31.573,12.048-58.161,6.231-80.594-19.941
		c-0.416,3.323-0.416,5.816-0.831,8.724c-3.74,23.265-19.526,39.467-43.205,44.867c-4.986,1.247-9.97,2.077-14.956,1.662
		c-22.019,0-44.451,0-66.469,0c-2.908,0-3.739-0.415-3.739-3.738c0-38.637,0-76.856,0-115.491c0-1.662,0-3.323,2.493-3.323
		c23.265,0.415,46.529-1.247,69.793,1.247c22.432,2.492,39.465,13.708,51.928,32.818c0.832-3.323,1.247-5.816,2.078-8.724
		c2.493-9.554,7.894-17.448,15.786-23.264c2.078-1.662,4.57-2.492,7.063-2.492c14.955,0,29.911,0,44.451,0
		c3.323,0,5.816,0.831,8.309,2.908c13.709,11.216,18.694,25.756,17.033,43.205c-0.415,2.908-2.078,2.491-3.738,2.491
		c-17.033,0-33.651,0-50.684,0c-4.569,0-4.986,0.417-3.323,4.571c2.493,5.816,7.062,9.554,12.877,12.047
		c11.632,4.57,22.849,3.323,33.651-1.246c0.831-0.416,1.246-0.416,2.078-0.832c7.892-2.908,12.878-7.892,15.371-16.201
		c4.986-14.54,10.802-28.665,16.203-43.205c1.246-2.908,2.491-4.155,5.399-4.155c16.618,0,32.821,0.416,49.437,0.416
		c2.908,0,2.908,2.077,3.74,3.739c10.385,28.25,20.356,56.083,30.741,84.333c3.738,10.387,7.479,20.356,11.217,30.743
		c1.663,3.738,0.415,4.153-2.908,4.153c-13.294,0-26.172,0-39.467,0c-2.908,0-4.569-0.83-5.399-3.738
		c-1.248-4.57-3.325-8.724-4.571-12.88c-0.83-2.075-2.078-2.907-4.153-2.907c-10.802,0-21.604,0-32.82,0
		c-2.493,0-3.323,0.832-4.154,3.323c-1.247,4.57-3.323,9.141-4.57,13.709c-0.416,1.663-1.246,2.493-3.323,2.493
		C24.05,465.371,9.926,465.371-5.031,465.371z M-159.155,404.302c0,7.062,0,13.709,0,20.772c0,10.387,0,9.971,10.385,10.802
		c14.955,0.83,27.834-8.31,30.328-25.758c2.491-18.279-6.648-32.403-24.097-35.727c-4.153-0.832-8.724,0-12.877-0.416
		c-2.908-0.416-3.738,0.831-3.738,3.739C-159.155,386.439-159.155,395.578-159.155,404.302z M67.67,366.913
		c-5.816,18.28-10.8,35.312-16.201,52.344c-0.832,2.078,0,2.909,2.076,2.494c7.063,0,14.125,0,21.188,0
		c3.323,0,8.309,1.245,9.555-0.416c1.662-2.493-1.246-6.231-2.078-9.554C77.226,397.24,72.656,382.7,67.67,366.913z
		 M-26.633,377.715c4.986,0,9.554,0,14.54,0c1.246,0,2.493,0.415,2.908-1.662c1.662-7.894-4.986-18.28-12.878-19.941
		c-12.879-2.493-21.604,4.985-21.604,19.525c0,2.078,1.248,2.078,2.908,2.078C-36.187,377.715-31.203,377.715-26.633,377.715z"/>
	<path fill="#2DA6DA" d="M392.954,413.856c-1.247,1.663-0.417,3.323-0.417,4.986c-0.415,10.387,0.832,20.772-0.83,30.743
		c-1.245,8.308-6.231,13.709-14.54,14.956c-3.738,0.83-7.892,0.83-11.632,0.415c-10.385-1.247-16.616-7.479-16.616-19.11
		c-0.417-29.081-0.417-57.746,0-86.826c0-11.632,6.646-17.448,18.278-18.279c9.97-0.415,17.863,2.493,24.095,10.802
		c10.802,14.125,22.434,27.834,34.065,41.958c0.831-1.661,0.416-3.323,0.416-4.569c0.415-10.387-0.831-21.188,0.415-31.573
		c1.245-9.97,6.646-14.956,16.617-15.787c0.831,0,2.076-0.415,2.908-0.415c16.201-0.416,23.265,6.231,23.265,22.433
		c0,26.587,0,53.59,0,80.18c0,2.076-0.415,4.568-0.415,6.646c-1.663,8.724-6.233,13.293-14.957,14.54
		c-10.801,1.245-19.524-1.247-27.003-10.387c-9.97-12.878-20.771-25.34-31.573-37.805
		C394.615,415.934,393.785,415.104,392.954,413.856z"/>
	<path fill="#2DA6DA" d="M680.848,403.057c0-11.632,0-23.265,0-35.313c0-3.739,0.417-7.478,1.662-10.801
		c2.493-8.309,8.31-13.71,17.033-14.125c19.941-0.416,39.881-1.662,59.821,0.831c5.401,0.416,10.802,2.493,15.787,4.57
		c11.633,5.4,18.279,14.955,19.939,27.418c2.078,14.955-0.415,28.665-13.708,38.635c-0.415,0.417-0.832,0.832-1.247,0.832
		c-2.076,1.661-5.4,1.661-5.816,3.738c-0.415,2.493,2.908,4.571,4.571,6.647c5.815,7.063,11.217,14.54,17.032,21.604
		c2.493,2.908,2.076,5.4,0,7.892c-7.479,8.725-17.447,10.802-28.249,9.972c-8.725-0.83-15.371-4.985-20.771-11.632
		c-5.816-7.063-10.802-14.54-16.618-22.019c-0.83-0.831-1.246-2.908-2.493-2.493c-1.66,0.417-0.83,2.077-0.83,3.325
		c-0.415,5.815,0.415,12.047-0.83,17.863c-1.663,7.892-6.231,12.877-14.54,14.54c-4.57,0.83-9.14,0.83-13.71,0.415
		c-6.646-0.415-11.217-4.155-14.125-10.387c-2.076-4.984-3.323-9.97-3.323-15.37C680.848,427.151,680.848,415.104,680.848,403.057z
		 M726.546,387.684c0,2.908,0,5.816,0,8.724c0,2.078,0.83,2.493,2.492,2.493c3.739,0,7.895,0,11.633,0
		c6.231-0.416,9.555-4.154,9.97-10.385c0.415-6.648-3.323-10.801-9.97-11.217C726.546,375.637,726.546,375.637,726.546,387.684z"/>
	<path fill="#2DA6DA" d="M540.847,403.057c0-36.974,27.42-63.562,65.64-63.562c37.804,0,64.807,27.002,64.807,63.977
		c0,36.973-27.833,63.562-65.638,63.562C567.852,467.033,540.847,440.444,540.847,403.057z M626.012,402.225
		c0-0.416,0-2.076,0-3.323c-1.247-10.385-7.894-17.448-17.864-18.279c-10.801-0.831-18.694,4.154-21.603,14.125
		c-0.83,3.323-1.245,7.062-0.83,10.8c0.83,10.386,6.231,17.448,14.54,19.941C615.21,428.813,626.012,419.257,626.012,402.225z"/>
	<path fill="#2DA6DA" d="M218.887,391.007c0-11.216,0-20.355,0-29.495c0-12.878,6.231-19.11,19.111-20.356
		c3.323-0.416,6.646,0,9.97,0c10.801,0.83,16.618,7.063,17.033,17.863c0.415,15.372,0,30.742,0,46.528c0,3.325,0,6.233,0.415,9.556
		c0.831,7.062,4.986,10.8,11.632,10.8c7.063,0.417,10.802-2.908,12.462-10.385c0.417-2.078,0.417-4.155,0.417-6.231
		c0-15.372,0-30.743,0-46.528c0-4.57,0.831-8.724,2.908-12.878c4.984-12.463,35.31-11.632,39.88-1.662
		c2.078,4.153,3.323,8.308,3.323,12.877c0,17.033,0.415,34.481,0,51.514c-0.415,16.619-4.568,31.989-19.108,42.791
		c-9.555,7.062-20.357,9.555-31.574,10.385c-10.387,0.831-20.771,0-31.158-2.492c-19.941-5.816-30.741-19.524-34.064-39.881
		C218.057,411.781,219.302,400.148,218.887,391.007z"/>
	<path fill="#2DA6DA" d="M203.932,418.842c0,17.449,0,34.482,0,51.93c0,8.724-0.831,17.448-4.154,25.757
		c-6.233,16.201-18.28,24.095-34.896,27.003c-12.047,2.077-24.511,1.66-36.559-1.248c-2.908-0.83-5.816-2.075-8.309-3.323
		c-17.448-8.309-15.786-31.988-3.738-41.127c2.493-2.076,4.57-2.908,7.479,0c6.231,6.231,14.123,8.309,22.847,7.479
		c5.816-0.415,9.556-3.738,10.387-9.555c0.415-2.908,0.831-6.233,0.831-9.557c0-33.648,0-67.3,0-100.95c0-2.077,0-4.155,0-6.231
		c0.83-10.386,6.231-16.202,16.618-17.448c4.153-0.415,7.894-0.415,12.047,0c10.802,1.247,17.033,7.063,17.033,18.279
		c0.416,14.125,0,27.833,0,41.958C203.932,407.625,203.932,413.441,203.932,418.842z"/>
	<path fill="#2DA6DA" d="M530.047,420.505c0,8.308,0,16.201,0,24.51c0,13.295-7.063,20.356-20.356,20.356
		c-3.739,0-7.063,0.415-10.802-0.415c-8.309-1.662-12.879-6.231-14.125-14.54c-0.83-3.323-0.83-6.646-0.83-10.387
		c0-14.125,0-28.249,0-42.374c0-2.908,0.415-5.816,0.83-8.309c1.248-7.479,6.231-12.463,13.71-13.293
		c5.816-0.832,11.633-0.832,17.033,0c9.14,1.662,14.123,8.308,14.54,18.694C530.047,403.057,529.63,411.781,530.047,420.505
		L530.047,420.505z"/>
	<path fill="#67B32E" d="M507.198,366.913c-13.71,0-24.927-10.801-24.927-24.51c0-13.709,11.217-25.342,24.927-25.342
		c13.708,0,24.925,11.217,24.925,24.926C532.123,355.697,520.906,366.913,507.198,366.913z"/>
</g>
</svg>
