<svg width="120" height="120" viewBox="0 0 120 120" fill="none" xmlns="http://www.w3.org/2000/svg">
<g clip-path="url(#clip0_1809_816)">
<rect width="120" height="120" rx="60" transform="matrix(-1 0 0 1 120 0)" fill="#F5F5F5"/>
<path d="M70.683 83.5497C67.2189 77.7897 59.2656 66.749 40.3283 51.2352C11.7522 27.8253 38.7223 6.41295 67.6959 17.8171C70.7954 19.0372 79.3842 14.1528 87.3403 19.2985C92.4725 22.6179 90.4752 25.2193 92.4735 27.8206C94.4719 30.422 102.176 30.2689 103.864 37.0237C104.864 41.0256 102.097 45.2175 102.467 48.2296C102.837 51.2417 105.758 53.9568 105.897 57.9333C105.957 59.6128 105.686 61.2877 105.099 62.8624C104.512 64.437 103.62 65.8807 102.475 67.1107C101.33 68.3408 99.9539 69.3332 98.4252 70.0313C96.8965 70.7294 95.2452 71.1195 93.5657 71.1794C93.552 74.4996 92.2556 77.6861 89.9474 80.0728C87.6392 82.4595 84.4978 83.8618 81.1799 83.9865C79.0524 84.0643 76.9394 83.6066 75.0347 82.6555C73.1449 84.3973 71.5225 84.945 70.683 83.5497Z" fill="#8D92A2"/>
<path d="M70.0002 77.6001C70.0002 74.0001 70.1226 56.2433 70.1166 55.9433C80.0002 57.4001 79.8002 38.6001 69.8002 43.2001C67.6002 44.6001 61.4002 43.2001 62.0002 31.6001C51.2002 43.2001 38.6614 29.6705 37.5862 40.6953C36.1178 55.7493 37.595 71.5037 46.9506 71.5049C47.9741 71.4925 48.9945 71.3905 50.0002 71.2001V77.6001C50.0002 81.6001 42.8002 83.6001 42.8002 83.6001C42.8002 83.6001 55.237 95.3201 60.4002 95.2553C65.5634 95.1905 77.2002 83.6001 77.2002 83.6001C77.2002 83.6001 70.0002 81.6001 70.0002 77.6001Z" fill="#ECECEC"/>
<g style="mix-blend-mode:multiply" opacity="0.7">
<path d="M50.001 71.1983C54.9635 70.0978 59.6659 68.0468 63.8486 65.1587C63.8486 65.1587 60.3974 73.5959 50.0139 75.1967L50.001 71.1983Z" fill="#8D92A2"/>
</g>
<path d="M23.2002 95.6001C20.2982 102.049 18.8002 121.6 18.8002 121.6H101.2C101.2 121.6 99.7022 102.049 96.8002 95.6001C94.2578 89.9509 77.5046 83.4645 72.595 81.6001C69.7602 84.7713 65.6978 86.8001 60.0002 86.8001C54.3026 86.8001 50.2402 84.7713 47.4054 81.6001C42.4958 83.4645 25.7426 89.9509 23.2002 95.6001Z" fill="#8D92A2"/>
<path d="M97.5699 95.7299C95.3931 91.5903 88.2287 87.2471 81.6039 84.3195C78.2999 82.8595 68.3999 124.8 68.3999 124.8H101.567C101.567 124.8 101.966 104.09 97.5699 95.7299Z" fill="#8D92A2"/>
</g>
<defs>
<clipPath id="clip0_1809_816">
<rect width="120" height="120" rx="60" transform="matrix(-1 0 0 1 120 0)" fill="white"/>
</clipPath>
</defs>
</svg>
